PathFileType	4	(X/Y/Z)	/Users/niels/Desktop/University/Third Semester/Perception and Action/Exam/Gymnastics Motion Tracking/Code for Gym Tracking/Analyzed Data/Webcam_Backflip/id2002_2_trajectory_Sports2D/id2002_2_trajectory_Sports2D_px_person00.trc
DataRate	CameraRate	NumFrames	NumMarkers	Units	OrigDataRate	OrigDataStartFrame	OrigNumFrames
29.798657718120804	29.798657718120804	8	22	m	29.798657718120804	37	149
Frame#	Time	Hip			RHip			RKnee			RAnkle			RBigToe			RSmallToe			RHeel			LHip			LKnee			LAnkle			LBigToe			LSmallToe			LHeel			Neck			Head			Nose			RShoulder			RElbow			RWrist			LShoulder			LElbow			LWrist		
		X1	Y1	Z1	X2	Y2	Z2	X3	Y3	Z3	X4	Y4	Z4	X5	Y5	Z5	X6	Y6	Z6	X7	Y7	Z7	X8	Y8	Z8	X9	Y9	Z9	X10	Y10	Z10	X11	Y11	Z11	X12	Y12	Z12	X13	Y13	Z13	X14	Y14	Z14	X15	Y15	Z15	X16	Y16	Z16	X17	Y17	Z17	X18	Y18	Z18	X19	Y19	Z19	X20	Y20	Z20	X21	Y21	Z21	X22	Y22	Z22
37	1.241666666666667	0.963317137262204	-0.7001484373204456	0.0	0.9254938066844678	-0.7019521563350992	0.0	0.933231729256161	-1.038589743557285	0.0	0.9253391952159513	-1.0891826868588441	0.0			0.0			0.0			0.0	1.0060790893366456	-0.7070713816609879	0.0	0.9738589173181492	-1.0345746646676957	0.0	0.9805118502598125	-1.078050598237936	0.0			0.0			0.0	0.74603759765625	-1.06143896484375	0.0	1.0055577937698843	-0.19748620563646335	0.0	1.0734166891868382	-0.01785087615477011	0.0	1.072649893637977	-0.10252182438448039	0.0	0.9075303020256925	-0.2437883371318337	0.0	0.8353932017313636	-0.469535238967297	0.0	0.8455028984399362	-0.7305473687653813	0.0	1.0464170081565134	-0.29201563924199286	0.0	1.0159335955398745	-0.49898449608094797	0.0	1.1240341656148596	-0.47548458896599166	0.0
38	1.2752252252252254	0.9603959194351905	-0.6996716954398274	0.0	0.9210920900388423	-0.7024864519112989	0.0	0.9311775654046908	-1.0385348175330662	0.0	0.9253402557810005	-1.0891829603764722	0.0			0.0			0.0			0.0	1.0046568891452834	-0.7077428703249933	0.0	0.9721746621185204	-1.034038164829396	0.0	0.9797633339646088	-1.0775449389839808	0.0			0.0			0.0	0.74603759765625	-1.06143896484375	0.0	1.0021837929261879	-0.19631833623052294	0.0	1.0696172996422557	-0.018596396228627896	0.0	1.0683273738158126	-0.10068388512880895	0.0	0.904982049685633	-0.24418468172863775	0.0	0.8410087310285025	-0.4734597912716289	0.0	0.8673113825978379	-0.7321247382070267	0.0	1.0449535735448143	-0.2890956465392262	0.0	1.016233738326197	-0.49376660722148696	0.0	1.1200641408444023	-0.4717956737867358	0.0
39	1.308783783783784	0.9565009945576065	-0.7000521480168249	0.0	0.9149859846139031	-0.7038529411926452	0.0	0.9304330619333512	-1.0396354091084539	0.0	0.9253414386018985	-1.0891832390665581	0.0			0.0			0.0			0.0	1.003297045074502	-0.7095524572004857	0.0	0.9737129512966938	-1.034682134100509	0.0	0.9799953126633696	-1.0777882067483542	0.0			0.0			0.0	0.74603759765625	-1.06143896484375	0.0	0.9987267691523858	-0.1954594584111153	0.0	1.0655554578963666	-0.019766013848353532	0.0	1.0638593836301347	-0.09853350782084098	0.0	0.9018316749590545	-0.24465404609317734	0.0	0.8469171943824508	-0.4775142410311512	0.0	0.8910298243927851	-0.7330201710942994	0.0	1.0443892036872096	-0.28672728864294994	0.0	1.0167812767296287	-0.48874632307081484	0.0	1.1157989426318773	-0.46836135188243033	0.0
40	1.3423423423423424	0.9519419232337721	-0.7013352107169346	0.0	0.908233650894396	-0.7057611214914233	0.0	0.9304118233064488	-1.041963965800487	0.0	0.9253421444523037	-1.0891833481255018	0.0			0.0			0.0			0.0	1.001756650933892	-0.7121801399305103	0.0	0.9779338543953214	-1.036684559524177	0.0	0.9821550484482091	-1.0787492145046782	0.0			0.0			0.0	0.74603759765625	-1.06143896484375	0.0	0.9951372958165524	-0.19478736319912335	0.0	1.0614557902208168	-0.021042980405142245	0.0	1.0594880270825522	-0.09627523766811037	0.0	0.8983600962337072	-0.24503157960802247	0.0	0.85252851120554	-0.48132654275725206	0.0	0.9156246259335492	-0.7327188862351086	0.0	1.0441842623451538	-0.2848085036805962	0.0	1.0173022363426434	-0.4847221124144192	0.0	1.111711118723885	-0.4656000659584157	0.0
41	1.3759009009009011	0.9468611823327934	-0.7032005342873919	0.0	0.9017727366659886	-0.7075793698372306	0.0	0.9303027142602414	-1.0450048450944855	0.0	0.9253412334876926	-1.0891829749732649	0.0			0.0			0.0			0.0	0.9995276463629057	-0.7148589797376113	0.0	0.9837429877439674	-1.0395448413949293	0.0	0.9856784590030571	-1.0802350726421717	0.0			0.0			0.0	0.74603759765625	-1.06143896484375	0.0	0.9913548496913386	-0.19404545175349974	0.0	1.0575733350317478	-0.022052325000710117	0.0	1.055368738322775	-0.09412615090814667	0.0	0.8948533814933212	-0.2451996996847372	0.0	0.8574125753346016	-0.4846231706863137	0.0	0.9400429126067793	-0.7309465044586858	0.0	1.0436867876529872	-0.28309148443918286	0.0	1.0175216125547542	-0.48211921382422274	0.0	1.1081993522334168	-0.46360050266137554	0.0
42	1.4094594594594596	0.9415496030714814	-0.7051331073988717	0.0	0.8962801949793567	-0.7088553904518883	0.0	0.9294807488161857	-1.0480358397641298	0.0	0.9253370012725023	-1.0891816775832421	0.0			0.0			0.0			0.0	0.9963331705137649	-0.7168373826126662	0.0	0.9899511083764234	-1.042464532550389	0.0	0.9894669450879028	-1.0819931374153922	0.0			0.0			0.0	0.74603759765625	-1.06143896484375	0.0	0.9873766586808846	-0.19305961189045198	0.0	1.0540828893221215	-0.022532339046143754	0.0	1.0515455126091344	-0.09226699199645615	0.0	0.8915205149238726	-0.24509960002801492	0.0	0.8614180564045535	-0.48721668691822523	0.0	0.9633196825674653	-0.7277641491707667	0.0	1.042428109965936	-0.2812577739974504	0.0	1.0172733835401018	-0.4808245484013916	0.0	1.1053395306851832	-0.4621995889855225	0.0
43	1.443018018018018	0.936494401782596	-0.7065817533826967	0.0	0.8920875118871564	-0.7094774229321408	0.0	0.9277703047831012	-1.0505278262665787	0.0	0.9253274897423819	-1.0891789892717905	0.0			0.0			0.0			0.0	0.9924389529925527	-0.7176450121222899	0.0	0.9957787182569624	-1.044843809632936	0.0	0.992701806554318	-1.0837588047687752	0.0			0.0			0.0	0.74603759765625	-1.06143896484375	0.0	0.9833290462886078	-0.191825366036635	0.0	1.0510594492739918	-0.022482677839499313	0.0	1.0479850135547855	-0.0908091844794183	0.0	0.8884775787742009	-0.24472953652973886	0.0	0.8646547549962043	-0.4890761962908648	0.0	0.9846418707467487	-0.7235071791171349	0.0	1.0403724150835976	-0.2789798268032819	0.0	1.0164552113423784	-0.48033899706415	0.0	1.102947978744777	-0.46112123471982325	0.0
44	1.4765765765765768	0.9320909426241231	-0.7070953561974148	0.0	0.8890831944932377	-0.7094263643200048	0.0	0.9253464305147433	-1.0522505642998254	0.0	0.9253114062816655	-1.0891746886645268	0.0			0.0			0.0			0.0	0.9884712841894228	-0.7170695742584772	0.0	1.0010684669337204	-1.046442140435155	0.0	0.9950272352527076	-1.0852525165175113	0.0			0.0			0.0	0.74603759765625	-1.06143896484375	0.0	0.9794359749175942	-0.1904593175814275	0.0	1.048536554405477	-0.02209154896189699	0.0	1.0446456383965943	-0.08977703260121939	0.0	0.8857785583182776	-0.24414042134496872	0.0	0.8673271762725018	-0.49039267748852255	0.0	1.0033798189465932	-0.7187644811467687	0.0	1.0378800786575713	-0.2760771803357948	0.0	1.0150217325401163	-0.4800219622435786	0.0	1.100809638117142	-0.4600763411505563	0.0
